ISO-10303-21;
HEADER;
FILE_DESCRIPTION(('CAx-IF Rec.Pracs.---Model Styling and Organization---1.5---2016-08-15','CAx-IF Rec.Pracs.---Geometric and Assembly Validation Properties---4.4---2016-08-17','CAx-IF Rec.Pracs.---User Defined Attributes---1.5---2016-08-15','CAx-IF Rec.Pracs.---External References---2.1---2005-01-19'),'2;1');
FILE_NAME('185523.step','2023-10-28T17:42:31',('Unspecified'),('Unspecified'),'CAD Exchanger 3.10.2 (cadexchanger.com)','Unspecified','');
FILE_SCHEMA(('AUTOMOTIVE_DESIGN { 1 0 10303 214 1 1 1 1 }'));
ENDSEC;
DATA;
#1=APPLICATION_CONTEXT('core data for automotive mechanical design processes');
#2=APPLICATION_PROTOCOL_DEFINITION('international standard','automotive_design',2000,#1);
#3=PRODUCT_CONTEXT('',#1,'mechanical');
#4=PRODUCT('124556','124556',$,(#3));
#5=PRODUCT_DEFINITION_FORMATION('',$,#4);
#6=PRODUCT_DEFINITION_CONTEXT('part definition',#1,'design');
#7=PRODUCT_DEFINITION('design',$,#5,#6);
#8=PRODUCT_DEFINITION_SHAPE('',$,#7);
#9=MANIFOLD_SOLID_BREP('Volumenkörper1',#10);
#10=CLOSED_SHELL('',(#11,#51,#91,#113,#144,#175,#215,#287,#359,#390,#414,#438,#469,#493,#517,#548,#581,#605,#622,#653,#677,#710,#727,#761,#778,#795));
#11=ADVANCED_FACE('',(#12),#46,.F.);
#12=FACE_BOUND('',#13,.T.);
#13=EDGE_LOOP('',(#14,#24,#32,#40));
#14=ORIENTED_EDGE('',*,*,#15,.T.);
#15=EDGE_CURVE('',#16,#18,#20,.F.);
#16=VERTEX_POINT('',#17);
#17=CARTESIAN_POINT('',(-0.25,0.035,0.5));
#18=VERTEX_POINT('',#19);
#19=CARTESIAN_POINT('',(-0.25,0.035,0.0));
#20=LINE('',#21,#22);
#21=CARTESIAN_POINT('',(-0.25,0.035,0.0));
#22=VECTOR('',#23,1.0);
#23=DIRECTION('',(0.0,0.0,1.0));
#24=ORIENTED_EDGE('',*,*,#25,.T.);
#25=EDGE_CURVE('',#18,#26,#28,.F.);
#26=VERTEX_POINT('',#27);
#27=CARTESIAN_POINT('',(-0.25,-3.061616998E-17,0.0));
#28=LINE('',#29,#30);
#29=CARTESIAN_POINT('',(-0.25,0.08375,0.0));
#30=VECTOR('',#31,1.0);
#31=DIRECTION('',(0.0,1.0,0.0));
#32=ORIENTED_EDGE('',*,*,#33,.T.);
#33=EDGE_CURVE('',#26,#34,#36,.F.);
#34=VERTEX_POINT('',#35);
#35=CARTESIAN_POINT('',(-0.25,-3.061616998E-17,0.5));
#36=LINE('',#37,#38);
#37=CARTESIAN_POINT('',(-0.25,-3.061616998E-17,0.0));
#38=VECTOR('',#39,1.0);
#39=DIRECTION('',(0.0,0.0,-1.0));
#40=ORIENTED_EDGE('',*,*,#41,.T.);
#41=EDGE_CURVE('',#34,#16,#42,.F.);
#42=LINE('',#43,#44);
#43=CARTESIAN_POINT('',(-0.25,0.08375,0.5));
#44=VECTOR('',#45,1.0);
#45=DIRECTION('',(0.0,-1.0,0.0));
#46=PLANE('',#47);
#47=AXIS2_PLACEMENT_3D('',#48,#49,#50);
#48=CARTESIAN_POINT('',(-0.25,-3.061616998E-17,0.0));
#49=DIRECTION('',(1.0,0.0,0.0));
#50=DIRECTION('',(0.0,0.0,-1.0));
#51=ADVANCED_FACE('',(#52),#86,.F.);
#52=FACE_BOUND('',#53,.T.);
#53=EDGE_LOOP('',(#54,#64,#72,#80));
#54=ORIENTED_EDGE('',*,*,#55,.T.);
#55=EDGE_CURVE('',#56,#58,#60,.F.);
#56=VERTEX_POINT('',#57);
#57=CARTESIAN_POINT('',(-0.75,0.035,0.0));
#58=VERTEX_POINT('',#59);
#59=CARTESIAN_POINT('',(-0.75,0.035,0.5));
#60=LINE('',#61,#62);
#61=CARTESIAN_POINT('',(-0.75,0.035,0.5));
#62=VECTOR('',#63,1.0);
#63=DIRECTION('',(2.775557562E-16,3.399077684E-32,-1.0));
#64=ORIENTED_EDGE('',*,*,#65,.T.);
#65=EDGE_CURVE('',#58,#66,#68,.F.);
#66=VERTEX_POINT('',#67);
#67=CARTESIAN_POINT('',(-0.75,-9.184850994E-17,0.5));
#68=LINE('',#69,#70);
#69=CARTESIAN_POINT('',(-0.75,0.08375,0.5));
#70=VECTOR('',#71,1.0);
#71=DIRECTION('',(0.0,1.0,0.0));
#72=ORIENTED_EDGE('',*,*,#73,.T.);
#73=EDGE_CURVE('',#66,#74,#76,.F.);
#74=VERTEX_POINT('',#75);
#75=CARTESIAN_POINT('',(-0.75,-9.184850994E-17,0.0));
#76=LINE('',#77,#78);
#77=CARTESIAN_POINT('',(-0.75,-9.184850994E-17,0.25));
#78=VECTOR('',#79,1.0);
#79=DIRECTION('',(-2.775557562E-16,-3.399077684E-32,1.0));
#80=ORIENTED_EDGE('',*,*,#81,.T.);
#81=EDGE_CURVE('',#74,#56,#82,.F.);
#82=LINE('',#83,#84);
#83=CARTESIAN_POINT('',(-0.75,0.08375,0.0));
#84=VECTOR('',#85,1.0);
#85=DIRECTION('',(0.0,-1.0,0.0));
#86=PLANE('',#87);
#87=AXIS2_PLACEMENT_3D('',#88,#89,#90);
#88=CARTESIAN_POINT('',(-0.75,-9.184850994E-17,0.5));
#89=DIRECTION('',(-1.0,0.0,-2.775557562E-16));
#90=DIRECTION('',(-2.775557562E-16,0.0,1.0));
#91=ADVANCED_FACE('',(#92),#108,.F.);
#92=FACE_BOUND('',#93,.T.);
#93=EDGE_LOOP('',(#94,#100,#101,#107));
#94=ORIENTED_EDGE('',*,*,#95,.T.);
#95=EDGE_CURVE('',#56,#18,#96,.F.);
#96=LINE('',#97,#98);
#97=CARTESIAN_POINT('',(-0.5,0.035,0.0));
#98=VECTOR('',#99,1.0);
#99=DIRECTION('',(-1.0,-1.224646799E-16,0.0));
#100=ORIENTED_EDGE('',*,*,#15,.F.);
#101=ORIENTED_EDGE('',*,*,#102,.T.);
#102=EDGE_CURVE('',#16,#58,#103,.F.);
#103=LINE('',#104,#105);
#104=CARTESIAN_POINT('',(-0.5,0.035,0.5));
#105=VECTOR('',#106,1.0);
#106=DIRECTION('',(1.0,1.224646799E-16,0.0));
#107=ORIENTED_EDGE('',*,*,#55,.F.);
#108=PLANE('',#109);
#109=AXIS2_PLACEMENT_3D('',#110,#111,#112);
#110=CARTESIAN_POINT('',(-0.5,0.035,0.25));
#111=DIRECTION('',(-1.224646799E-16,1.0,1.009085842E-32));
#112=DIRECTION('',(0.0,-1.009085842E-32,1.0));
#113=ADVANCED_FACE('',(#114),#139,.T.);
#114=FACE_BOUND('',#115,.T.);
#115=EDGE_LOOP('',(#116,#117,#125,#133));
#116=ORIENTED_EDGE('',*,*,#73,.F.);
#117=ORIENTED_EDGE('',*,*,#118,.T.);
#118=EDGE_CURVE('',#66,#119,#121,.T.);
#119=VERTEX_POINT('',#120);
#120=CARTESIAN_POINT('',(-1.0,-1.224646799E-16,0.5));
#121=LINE('',#122,#123);
#122=CARTESIAN_POINT('',(0.0,0.0,0.5));
#123=VECTOR('',#124,1.0);
#124=DIRECTION('',(-1.0,-1.224646799E-16,0.0));
#125=ORIENTED_EDGE('',*,*,#126,.T.);
#126=EDGE_CURVE('',#119,#127,#129,.F.);
#127=VERTEX_POINT('',#128);
#128=CARTESIAN_POINT('',(-1.0,-1.224646799E-16,0.0));
#129=LINE('',#130,#131);
#130=CARTESIAN_POINT('',(-1.0,-1.224646799E-16,0.0));
#131=VECTOR('',#132,1.0);
#132=DIRECTION('',(0.0,0.0,1.0));
#133=ORIENTED_EDGE('',*,*,#134,.T.);
#134=EDGE_CURVE('',#127,#74,#135,.F.);
#135=LINE('',#136,#137);
#136=CARTESIAN_POINT('',(0.0,0.0,0.0));
#137=VECTOR('',#138,1.0);
#138=DIRECTION('',(-1.0,-1.224646799E-16,0.0));
#139=PLANE('',#140);
#140=AXIS2_PLACEMENT_3D('',#141,#142,#143);
#141=CARTESIAN_POINT('',(0.0,0.0,0.0));
#142=DIRECTION('',(1.224646799E-16,-1.0,0.0));
#143=DIRECTION('',(0.0,0.0,-1.0));
#144=ADVANCED_FACE('',(#145),#170,.T.);
#145=FACE_BOUND('',#146,.T.);
#146=EDGE_LOOP('',(#147,#148,#156,#164));
#147=ORIENTED_EDGE('',*,*,#33,.F.);
#148=ORIENTED_EDGE('',*,*,#149,.T.);
#149=EDGE_CURVE('',#26,#150,#152,.F.);
#150=VERTEX_POINT('',#151);
#151=CARTESIAN_POINT('',(0.0,0.0,0.0));
#152=LINE('',#153,#154);
#153=CARTESIAN_POINT('',(0.0,0.0,0.0));
#154=VECTOR('',#155,1.0);
#155=DIRECTION('',(-1.0,-1.224646799E-16,0.0));
#156=ORIENTED_EDGE('',*,*,#157,.T.);
#157=EDGE_CURVE('',#150,#158,#160,.T.);
#158=VERTEX_POINT('',#159);
#159=CARTESIAN_POINT('',(0.0,0.0,0.5));
#160=LINE('',#161,#162);
#161=CARTESIAN_POINT('',(0.0,0.0,0.0));
#162=VECTOR('',#163,1.0);
#163=DIRECTION('',(0.0,0.0,1.0));
#164=ORIENTED_EDGE('',*,*,#165,.T.);
#165=EDGE_CURVE('',#158,#34,#166,.T.);
#166=LINE('',#167,#168);
#167=CARTESIAN_POINT('',(0.0,0.0,0.5));
#168=VECTOR('',#169,1.0);
#169=DIRECTION('',(-1.0,-1.224646799E-16,0.0));
#170=PLANE('',#171);
#171=AXIS2_PLACEMENT_3D('',#172,#173,#174);
#172=CARTESIAN_POINT('',(0.0,0.0,0.0));
#173=DIRECTION('',(1.224646799E-16,-1.0,0.0));
#174=DIRECTION('',(0.0,0.0,-1.0));
#175=ADVANCED_FACE('',(#176),#210,.T.);
#176=FACE_BOUND('',#177,.T.);
#177=EDGE_LOOP('',(#178,#188,#196,#204));
#178=ORIENTED_EDGE('',*,*,#179,.T.);
#179=EDGE_CURVE('',#180,#182,#184,.F.);
#180=VERTEX_POINT('',#181);
#181=CARTESIAN_POINT('',(-0.8,0.35,0.5));
#182=VERTEX_POINT('',#183);
#183=CARTESIAN_POINT('',(-0.2,0.35,0.5));
#184=LINE('',#185,#186);
#185=CARTESIAN_POINT('',(-1.0,0.35,0.5));
#186=VECTOR('',#187,1.0);
#187=DIRECTION('',(-1.0,-2.081668171E-16,0.0));
#188=ORIENTED_EDGE('',*,*,#189,.T.);
#189=EDGE_CURVE('',#182,#190,#192,.F.);
#190=VERTEX_POINT('',#191);
#191=CARTESIAN_POINT('',(-0.2,0.35,0.0));
#192=LINE('',#193,#194);
#193=CARTESIAN_POINT('',(-0.2,0.35,0.5));
#194=VECTOR('',#195,1.0);
#195=DIRECTION('',(2.312964635E-15,4.814824861E-31,1.0));
#196=ORIENTED_EDGE('',*,*,#197,.T.);
#197=EDGE_CURVE('',#190,#198,#200,.F.);
#198=VERTEX_POINT('',#199);
#199=CARTESIAN_POINT('',(-0.8,0.35,0.0));
#200=LINE('',#201,#202);
#201=CARTESIAN_POINT('',(0.0,0.35,0.0));
#202=VECTOR('',#203,1.0);
#203=DIRECTION('',(1.0,2.081668171E-16,0.0));
#204=ORIENTED_EDGE('',*,*,#205,.T.);
#205=EDGE_CURVE('',#198,#180,#206,.F.);
#206=LINE('',#207,#208);
#207=CARTESIAN_POINT('',(-0.8,0.35,0.0));
#208=VECTOR('',#209,1.0);
#209=DIRECTION('',(0.0,0.0,-1.0));
#210=PLANE('',#211);
#211=AXIS2_PLACEMENT_3D('',#212,#213,#214);
#212=CARTESIAN_POINT('',(-0.5,0.35,0.25));
#213=DIRECTION('',(-1.211882668E-16,1.0,-5.037353432E-18));
#214=DIRECTION('',(0.0,5.037353432E-18,1.0));
#215=ADVANCED_FACE('',(#216),#282,.T.);
#216=FACE_BOUND('',#217,.T.);
#217=EDGE_LOOP('',(#218,#228,#236,#244,#252,#260,#268,#276));
#218=ORIENTED_EDGE('',*,*,#219,.T.);
#219=EDGE_CURVE('',#220,#222,#224,.T.);
#220=VERTEX_POINT('',#221);
#221=CARTESIAN_POINT('',(-0.8,0.335,0.44));
#222=VERTEX_POINT('',#223);
#223=CARTESIAN_POINT('',(-0.8,0.335,0.06));
#224=LINE('',#225,#226);
#225=CARTESIAN_POINT('',(-0.8,0.335,0.03));
#226=VECTOR('',#227,1.0);
#227=DIRECTION('',(0.0,0.0,-1.0));
#228=ORIENTED_EDGE('',*,*,#229,.T.);
#229=EDGE_CURVE('',#222,#230,#232,.T.);
#230=VERTEX_POINT('',#231);
#231=CARTESIAN_POINT('',(-0.9,0.335,0.06));
#232=LINE('',#233,#234);
#233=CARTESIAN_POINT('',(-0.95,0.335,0.06));
#234=VECTOR('',#235,1.0);
#235=DIRECTION('',(-1.0,-2.081668171E-16,1.734723476E-16));
#236=ORIENTED_EDGE('',*,*,#237,.T.);
#237=EDGE_CURVE('',#230,#238,#240,.T.);
#238=VERTEX_POINT('',#239);
#239=CARTESIAN_POINT('',(-0.9,0.335,0.0));
#240=LINE('',#241,#242);
#241=CARTESIAN_POINT('',(-0.9,0.335,0.0));
#242=VECTOR('',#243,1.0);
#243=DIRECTION('',(0.0,0.0,-1.0));
#244=ORIENTED_EDGE('',*,*,#245,.T.);
#245=EDGE_CURVE('',#238,#246,#248,.F.);
#246=VERTEX_POINT('',#247);
#247=CARTESIAN_POINT('',(-1.0,0.335,0.0));
#248=LINE('',#249,#250);
#249=CARTESIAN_POINT('',(-1.0,0.335,0.0));
#250=VECTOR('',#251,1.0);
#251=DIRECTION('',(1.0,2.081668171E-16,0.0));
#252=ORIENTED_EDGE('',*,*,#253,.T.);
#253=EDGE_CURVE('',#246,#254,#256,.T.);
#254=VERTEX_POINT('',#255);
#255=CARTESIAN_POINT('',(-1.0,0.335,0.5));
#256=LINE('',#257,#258);
#257=CARTESIAN_POINT('',(-1.0,0.335,0.0));
#258=VECTOR('',#259,1.0);
#259=DIRECTION('',(0.0,0.0,1.0));
#260=ORIENTED_EDGE('',*,*,#261,.T.);
#261=EDGE_CURVE('',#254,#262,#264,.T.);
#262=VERTEX_POINT('',#263);
#263=CARTESIAN_POINT('',(-0.9,0.335,0.5));
#264=LINE('',#265,#266);
#265=CARTESIAN_POINT('',(-1.0,0.335,0.5));
#266=VECTOR('',#267,1.0);
#267=DIRECTION('',(1.0,2.081668171E-16,0.0));
#268=ORIENTED_EDGE('',*,*,#269,.T.);
#269=EDGE_CURVE('',#262,#270,#272,.T.);
#270=VERTEX_POINT('',#271);
#271=CARTESIAN_POINT('',(-0.9,0.335,0.44));
#272=LINE('',#273,#274);
#273=CARTESIAN_POINT('',(-0.9,0.335,0.22));
#274=VECTOR('',#275,1.0);
#275=DIRECTION('',(0.0,0.0,-1.0));
#276=ORIENTED_EDGE('',*,*,#277,.T.);
#277=EDGE_CURVE('',#270,#220,#278,.T.);
#278=LINE('',#279,#280);
#279=CARTESIAN_POINT('',(-0.9,0.335,0.44));
#280=VECTOR('',#281,1.0);
#281=DIRECTION('',(1.0,2.081668171E-16,0.0));
#282=PLANE('',#283);
#283=AXIS2_PLACEMENT_3D('',#284,#285,#286);
#284=CARTESIAN_POINT('',(-1.0,0.335,0.0));
#285=DIRECTION('',(-2.081668171E-16,1.0,0.0));
#286=DIRECTION('',(0.0,0.0,1.0));
#287=ADVANCED_FACE('',(#288),#354,.T.);
#288=FACE_BOUND('',#289,.T.);
#289=EDGE_LOOP('',(#290,#300,#308,#316,#324,#332,#340,#348));
#290=ORIENTED_EDGE('',*,*,#291,.T.);
#291=EDGE_CURVE('',#292,#294,#296,.T.);
#292=VERTEX_POINT('',#293);
#293=CARTESIAN_POINT('',(-0.2,0.335,0.06));
#294=VERTEX_POINT('',#295);
#295=CARTESIAN_POINT('',(-0.2,0.335,0.44));
#296=LINE('',#297,#298);
#297=CARTESIAN_POINT('',(-0.2,0.335,0.22));
#298=VECTOR('',#299,1.0);
#299=DIRECTION('',(2.312964635E-15,4.814824861E-31,1.0));
#300=ORIENTED_EDGE('',*,*,#301,.T.);
#301=EDGE_CURVE('',#294,#302,#304,.T.);
#302=VERTEX_POINT('',#303);
#303=CARTESIAN_POINT('',(-0.1,0.335,0.44));
#304=LINE('',#305,#306);
#305=CARTESIAN_POINT('',(-0.55,0.335,0.44));
#306=VECTOR('',#307,1.0);
#307=DIRECTION('',(1.0,2.081668171E-16,-6.938893904E-16));
#308=ORIENTED_EDGE('',*,*,#309,.T.);
#309=EDGE_CURVE('',#302,#310,#312,.T.);
#310=VERTEX_POINT('',#311);
#311=CARTESIAN_POINT('',(-0.1,0.335,0.5));
#312=LINE('',#313,#314);
#313=CARTESIAN_POINT('',(-0.1,0.335,0.25));
#314=VECTOR('',#315,1.0);
#315=DIRECTION('',(0.0,0.0,1.0));
#316=ORIENTED_EDGE('',*,*,#317,.T.);
#317=EDGE_CURVE('',#310,#318,#320,.T.);
#318=VERTEX_POINT('',#319);
#319=CARTESIAN_POINT('',(-1.094764425E-46,0.335,0.5));
#320=LINE('',#321,#322);
#321=CARTESIAN_POINT('',(-1.0,0.335,0.5));
#322=VECTOR('',#323,1.0);
#323=DIRECTION('',(1.0,2.081668171E-16,0.0));
#324=ORIENTED_EDGE('',*,*,#325,.T.);
#325=EDGE_CURVE('',#318,#326,#328,.F.);
#326=VERTEX_POINT('',#327);
#327=CARTESIAN_POINT('',(-1.094764425E-46,0.335,0.0));
#328=LINE('',#329,#330);
#329=CARTESIAN_POINT('',(-1.094764425E-46,0.335,0.0));
#330=VECTOR('',#331,1.0);
#331=DIRECTION('',(0.0,0.0,1.0));
#332=ORIENTED_EDGE('',*,*,#333,.T.);
#333=EDGE_CURVE('',#326,#334,#336,.F.);
#334=VERTEX_POINT('',#335);
#335=CARTESIAN_POINT('',(-0.1,0.335,0.0));
#336=LINE('',#337,#338);
#337=CARTESIAN_POINT('',(-1.0,0.335,0.0));
#338=VECTOR('',#339,1.0);
#339=DIRECTION('',(1.0,2.081668171E-16,0.0));
#340=ORIENTED_EDGE('',*,*,#341,.T.);
#341=EDGE_CURVE('',#334,#342,#344,.T.);
#342=VERTEX_POINT('',#343);
#343=CARTESIAN_POINT('',(-0.1,0.335,0.06));
#344=LINE('',#345,#346);
#345=CARTESIAN_POINT('',(-0.1,0.335,0.03));
#346=VECTOR('',#347,1.0);
#347=DIRECTION('',(0.0,0.0,1.0));
#348=ORIENTED_EDGE('',*,*,#349,.T.);
#349=EDGE_CURVE('',#342,#292,#350,.T.);
#350=LINE('',#351,#352);
#351=CARTESIAN_POINT('',(-0.6,0.335,0.06));
#352=VECTOR('',#353,1.0);
#353=DIRECTION('',(-1.0,-2.081668171E-16,3.469446952E-16));
#354=PLANE('',#355);
#355=AXIS2_PLACEMENT_3D('',#356,#357,#358);
#356=CARTESIAN_POINT('',(-1.0,0.335,0.0));
#357=DIRECTION('',(-2.081668171E-16,1.0,0.0));
#358=DIRECTION('',(0.0,0.0,1.0));
#359=ADVANCED_FACE('',(#360),#385,.F.);
#360=FACE_BOUND('',#361,.T.);
#361=EDGE_LOOP('',(#362,#372,#378,#379));
#362=ORIENTED_EDGE('',*,*,#363,.T.);
#363=EDGE_CURVE('',#364,#366,#368,.F.);
#364=VERTEX_POINT('',#365);
#365=CARTESIAN_POINT('',(-0.9,0.3,0.44));
#366=VERTEX_POINT('',#367);
#367=CARTESIAN_POINT('',(-0.8,0.3,0.44));
#368=LINE('',#369,#370);
#369=CARTESIAN_POINT('',(-0.8,0.3,0.44));
#370=VECTOR('',#371,1.0);
#371=DIRECTION('',(-1.0,-2.081668171E-16,0.0));
#372=ORIENTED_EDGE('',*,*,#373,.T.);
#373=EDGE_CURVE('',#366,#220,#374,.F.);
#374=LINE('',#375,#376);
#375=CARTESIAN_POINT('',(-0.8,0.335,0.44));
#376=VECTOR('',#377,1.0);
#377=DIRECTION('',(0.0,-1.0,0.0));
#378=ORIENTED_EDGE('',*,*,#277,.F.);
#379=ORIENTED_EDGE('',*,*,#380,.T.);
#380=EDGE_CURVE('',#270,#364,#381,.T.);
#381=LINE('',#382,#383);
#382=CARTESIAN_POINT('',(-0.9,0.335,0.44));
#383=VECTOR('',#384,1.0);
#384=DIRECTION('',(0.0,-1.0,0.0));
#385=PLANE('',#386);
#386=AXIS2_PLACEMENT_3D('',#387,#388,#389);
#387=CARTESIAN_POINT('',(-0.8,0.335,0.44));
#388=DIRECTION('',(0.0,0.0,-1.0));
#389=DIRECTION('',(-1.0,0.0,0.0));
#390=ADVANCED_FACE('',(#391),#409,.F.);
#391=FACE_BOUND('',#392,.T.);
#392=EDGE_LOOP('',(#393,#401,#402,#403));
#393=ORIENTED_EDGE('',*,*,#394,.T.);
#394=EDGE_CURVE('',#395,#364,#397,.F.);
#395=VERTEX_POINT('',#396);
#396=CARTESIAN_POINT('',(-0.9,0.3,0.5));
#397=LINE('',#398,#399);
#398=CARTESIAN_POINT('',(-0.9,0.3,0.44));
#399=VECTOR('',#400,1.0);
#400=DIRECTION('',(0.0,0.0,1.0));
#401=ORIENTED_EDGE('',*,*,#380,.F.);
#402=ORIENTED_EDGE('',*,*,#269,.F.);
#403=ORIENTED_EDGE('',*,*,#404,.T.);
#404=EDGE_CURVE('',#262,#395,#405,.F.);
#405=LINE('',#406,#407);
#406=CARTESIAN_POINT('',(-0.9,0.25125,0.5));
#407=VECTOR('',#408,1.0);
#408=DIRECTION('',(0.0,1.0,0.0));
#409=PLANE('',#410);
#410=AXIS2_PLACEMENT_3D('',#411,#412,#413);
#411=CARTESIAN_POINT('',(-0.9,0.335,0.44));
#412=DIRECTION('',(-1.0,0.0,0.0));
#413=DIRECTION('',(0.0,0.0,1.0));
#414=ADVANCED_FACE('',(#415),#433,.T.);
#415=FACE_BOUND('',#416,.T.);
#416=EDGE_LOOP('',(#417,#425,#426,#427));
#417=ORIENTED_EDGE('',*,*,#418,.T.);
#418=EDGE_CURVE('',#419,#366,#421,.T.);
#419=VERTEX_POINT('',#420);
#420=CARTESIAN_POINT('',(-0.8,0.3,0.5));
#421=LINE('',#422,#423);
#422=CARTESIAN_POINT('',(-0.8,0.3,0.5));
#423=VECTOR('',#424,1.0);
#424=DIRECTION('',(0.0,0.0,-1.0));
#425=ORIENTED_EDGE('',*,*,#363,.F.);
#426=ORIENTED_EDGE('',*,*,#394,.F.);
#427=ORIENTED_EDGE('',*,*,#428,.T.);
#428=EDGE_CURVE('',#395,#419,#429,.F.);
#429=LINE('',#430,#431);
#430=CARTESIAN_POINT('',(-0.675,0.3,0.5));
#431=VECTOR('',#432,1.0);
#432=DIRECTION('',(-1.0,-6.110369259E-16,0.0));
#433=PLANE('',#434);
#434=AXIS2_PLACEMENT_3D('',#435,#436,#437);
#435=CARTESIAN_POINT('',(-0.85,0.3,0.47));
#436=DIRECTION('',(-6.110369259E-16,1.0,-3.452186022E-16));
#437=DIRECTION('',(0.0,3.452186022E-16,1.0));
#438=ADVANCED_FACE('',(#439),#464,.F.);
#439=FACE_BOUND('',#440,.T.);
#440=EDGE_LOOP('',(#441,#451,#457,#458));
#441=ORIENTED_EDGE('',*,*,#442,.T.);
#442=EDGE_CURVE('',#443,#445,#447,.F.);
#443=VERTEX_POINT('',#444);
#444=CARTESIAN_POINT('',(-0.1,0.3,0.44));
#445=VERTEX_POINT('',#446);
#446=CARTESIAN_POINT('',(-0.1,0.3,0.5));
#447=LINE('',#448,#449);
#448=CARTESIAN_POINT('',(-0.1,0.3,0.5));
#449=VECTOR('',#450,1.0);
#450=DIRECTION('',(0.0,0.0,-1.0));
#451=ORIENTED_EDGE('',*,*,#452,.T.);
#452=EDGE_CURVE('',#445,#310,#453,.F.);
#453=LINE('',#454,#455);
#454=CARTESIAN_POINT('',(-0.1,0.25125,0.5));
#455=VECTOR('',#456,1.0);
#456=DIRECTION('',(0.0,-1.0,0.0));
#457=ORIENTED_EDGE('',*,*,#309,.F.);
#458=ORIENTED_EDGE('',*,*,#459,.T.);
#459=EDGE_CURVE('',#302,#443,#460,.T.);
#460=LINE('',#461,#462);
#461=CARTESIAN_POINT('',(-0.1,0.335,0.44));
#462=VECTOR('',#463,1.0);
#463=DIRECTION('',(0.0,-1.0,0.0));
#464=PLANE('',#465);
#465=AXIS2_PLACEMENT_3D('',#466,#467,#468);
#466=CARTESIAN_POINT('',(-0.1,0.335,0.5));
#467=DIRECTION('',(1.0,0.0,0.0));
#468=DIRECTION('',(0.0,0.0,-1.0));
#469=ADVANCED_FACE('',(#470),#488,.F.);
#470=FACE_BOUND('',#471,.T.);
#471=EDGE_LOOP('',(#472,#480,#481,#482));
#472=ORIENTED_EDGE('',*,*,#473,.T.);
#473=EDGE_CURVE('',#474,#443,#476,.F.);
#474=VERTEX_POINT('',#475);
#475=CARTESIAN_POINT('',(-0.2,0.3,0.44));
#476=LINE('',#477,#478);
#477=CARTESIAN_POINT('',(-0.1,0.3,0.44));
#478=VECTOR('',#479,1.0);
#479=DIRECTION('',(-1.0,-2.081668171E-16,6.938893904E-16));
#480=ORIENTED_EDGE('',*,*,#459,.F.);
#481=ORIENTED_EDGE('',*,*,#301,.F.);
#482=ORIENTED_EDGE('',*,*,#483,.T.);
#483=EDGE_CURVE('',#294,#474,#484,.T.);
#484=LINE('',#485,#486);
#485=CARTESIAN_POINT('',(-0.2,0.335,0.44));
#486=VECTOR('',#487,1.0);
#487=DIRECTION('',(0.0,-1.0,0.0));
#488=PLANE('',#489);
#489=AXIS2_PLACEMENT_3D('',#490,#491,#492);
#490=CARTESIAN_POINT('',(-0.1,0.335,0.44));
#491=DIRECTION('',(-6.938893904E-16,0.0,-1.0));
#492=DIRECTION('',(-1.0,0.0,6.938893904E-16));
#493=ADVANCED_FACE('',(#494),#512,.T.);
#494=FACE_BOUND('',#495,.T.);
#495=EDGE_LOOP('',(#496,#497,#498,#506));
#496=ORIENTED_EDGE('',*,*,#442,.F.);
#497=ORIENTED_EDGE('',*,*,#473,.F.);
#498=ORIENTED_EDGE('',*,*,#499,.T.);
#499=EDGE_CURVE('',#474,#500,#502,.T.);
#500=VERTEX_POINT('',#501);
#501=CARTESIAN_POINT('',(-0.2,0.3,0.5));
#502=LINE('',#503,#504);
#503=CARTESIAN_POINT('',(-0.2,0.3,0.44));
#504=VECTOR('',#505,1.0);
#505=DIRECTION('',(2.312964635E-15,4.814824861E-31,1.0));
#506=ORIENTED_EDGE('',*,*,#507,.T.);
#507=EDGE_CURVE('',#500,#445,#508,.F.);
#508=LINE('',#509,#510);
#509=CARTESIAN_POINT('',(-0.325,0.3,0.5));
#510=VECTOR('',#511,1.0);
#511=DIRECTION('',(-1.0,-6.110369259E-16,0.0));
#512=PLANE('',#513);
#513=AXIS2_PLACEMENT_3D('',#514,#515,#516);
#514=CARTESIAN_POINT('',(-0.15,0.3,0.47));
#515=DIRECTION('',(-6.110369259E-16,1.0,-6.041325538E-16));
#516=DIRECTION('',(0.0,6.041325538E-16,1.0));
#517=ADVANCED_FACE('',(#518),#543,.F.);
#518=FACE_BOUND('',#519,.T.);
#519=EDGE_LOOP('',(#520,#530,#536,#537));
#520=ORIENTED_EDGE('',*,*,#521,.T.);
#521=EDGE_CURVE('',#522,#524,#526,.F.);
#522=VERTEX_POINT('',#523);
#523=CARTESIAN_POINT('',(-0.8,0.3,0.06));
#524=VERTEX_POINT('',#525);
#525=CARTESIAN_POINT('',(-0.9,0.3,0.06));
#526=LINE('',#527,#528);
#527=CARTESIAN_POINT('',(-0.9,0.3,0.06));
#528=VECTOR('',#529,1.0);
#529=DIRECTION('',(1.0,2.081668171E-16,-1.734723476E-16));
#530=ORIENTED_EDGE('',*,*,#531,.T.);
#531=EDGE_CURVE('',#524,#230,#532,.F.);
#532=LINE('',#533,#534);
#533=CARTESIAN_POINT('',(-0.9,0.335,0.06));
#534=VECTOR('',#535,1.0);
#535=DIRECTION('',(0.0,-1.0,0.0));
#536=ORIENTED_EDGE('',*,*,#229,.F.);
#537=ORIENTED_EDGE('',*,*,#538,.T.);
#538=EDGE_CURVE('',#222,#522,#539,.T.);
#539=LINE('',#540,#541);
#540=CARTESIAN_POINT('',(-0.8,0.335,0.06));
#541=VECTOR('',#542,1.0);
#542=DIRECTION('',(0.0,-1.0,0.0));
#543=PLANE('',#544);
#544=AXIS2_PLACEMENT_3D('',#545,#546,#547);
#545=CARTESIAN_POINT('',(-0.9,0.335,0.06));
#546=DIRECTION('',(1.734723476E-16,0.0,1.0));
#547=DIRECTION('',(1.0,0.0,-1.734723476E-16));
#548=ADVANCED_FACE('',(#549),#576,.F.);
#549=FACE_BOUND('',#550,.T.);
#550=EDGE_LOOP('',(#551,#559,#560,#561,#562,#563,#569,#570));
#551=ORIENTED_EDGE('',*,*,#552,.T.);
#552=EDGE_CURVE('',#553,#522,#555,.F.);
#553=VERTEX_POINT('',#554);
#554=CARTESIAN_POINT('',(-0.8,0.3,0.0));
#555=LINE('',#556,#557);
#556=CARTESIAN_POINT('',(-0.8,0.3,0.06));
#557=VECTOR('',#558,1.0);
#558=DIRECTION('',(0.0,0.0,-1.0));
#559=ORIENTED_EDGE('',*,*,#538,.F.);
#560=ORIENTED_EDGE('',*,*,#219,.F.);
#561=ORIENTED_EDGE('',*,*,#373,.F.);
#562=ORIENTED_EDGE('',*,*,#418,.F.);
#563=ORIENTED_EDGE('',*,*,#564,.T.);
#564=EDGE_CURVE('',#419,#180,#565,.F.);
#565=LINE('',#566,#567);
#566=CARTESIAN_POINT('',(-0.8,0.25125,0.5));
#567=VECTOR('',#568,1.0);
#568=DIRECTION('',(0.0,-1.0,0.0));
#569=ORIENTED_EDGE('',*,*,#205,.F.);
#570=ORIENTED_EDGE('',*,*,#571,.T.);
#571=EDGE_CURVE('',#198,#553,#572,.F.);
#572=LINE('',#573,#574);
#573=CARTESIAN_POINT('',(-0.8,0.335,0.0));
#574=VECTOR('',#575,1.0);
#575=DIRECTION('',(0.0,1.0,0.0));
#576=PLANE('',#577);
#577=AXIS2_PLACEMENT_3D('',#578,#579,#580);
#578=CARTESIAN_POINT('',(-0.8,0.335,0.06));
#579=DIRECTION('',(1.0,0.0,0.0));
#580=DIRECTION('',(0.0,0.0,-1.0));
#581=ADVANCED_FACE('',(#582),#600,.F.);
#582=FACE_BOUND('',#583,.T.);
#583=EDGE_LOOP('',(#584,#592,#598,#599));
#584=ORIENTED_EDGE('',*,*,#585,.T.);
#585=EDGE_CURVE('',#524,#586,#588,.F.);
#586=VERTEX_POINT('',#587);
#587=CARTESIAN_POINT('',(-0.9,0.3,0.0));
#588=LINE('',#589,#590);
#589=CARTESIAN_POINT('',(-0.9,0.3,0.0));
#590=VECTOR('',#591,1.0);
#591=DIRECTION('',(0.0,0.0,1.0));
#592=ORIENTED_EDGE('',*,*,#593,.T.);
#593=EDGE_CURVE('',#586,#238,#594,.F.);
#594=LINE('',#595,#596);
#595=CARTESIAN_POINT('',(-0.9,0.25125,0.0));
#596=VECTOR('',#597,1.0);
#597=DIRECTION('',(0.0,-1.0,0.0));
#598=ORIENTED_EDGE('',*,*,#237,.F.);
#599=ORIENTED_EDGE('',*,*,#531,.F.);
#600=PLANE('',#601);
#601=AXIS2_PLACEMENT_3D('',#602,#603,#604);
#602=CARTESIAN_POINT('',(-0.9,0.335,0.0));
#603=DIRECTION('',(-1.0,0.0,0.0));
#604=DIRECTION('',(0.0,0.0,1.0));
#605=ADVANCED_FACE('',(#606),#617,.T.);
#606=FACE_BOUND('',#607,.T.);
#607=EDGE_LOOP('',(#608,#609,#610,#616));
#608=ORIENTED_EDGE('',*,*,#521,.F.);
#609=ORIENTED_EDGE('',*,*,#552,.F.);
#610=ORIENTED_EDGE('',*,*,#611,.T.);
#611=EDGE_CURVE('',#553,#586,#612,.F.);
#612=LINE('',#613,#614);
#613=CARTESIAN_POINT('',(-0.675,0.3,0.0));
#614=VECTOR('',#615,1.0);
#615=DIRECTION('',(1.0,6.628197162E-16,0.0));
#616=ORIENTED_EDGE('',*,*,#585,.F.);
#617=PLANE('',#618);
#618=AXIS2_PLACEMENT_3D('',#619,#620,#621);
#619=CARTESIAN_POINT('',(-0.85,0.3,0.03));
#620=DIRECTION('',(-6.628197162E-16,1.0,2.589139516E-16));
#621=DIRECTION('',(0.0,-2.589139516E-16,1.0));
#622=ADVANCED_FACE('',(#623),#648,.F.);
#623=FACE_BOUND('',#624,.T.);
#624=EDGE_LOOP('',(#625,#635,#641,#642));
#625=ORIENTED_EDGE('',*,*,#626,.T.);
#626=EDGE_CURVE('',#627,#629,#631,.F.);
#627=VERTEX_POINT('',#628);
#628=CARTESIAN_POINT('',(-0.1,0.3,0.06));
#629=VERTEX_POINT('',#630);
#630=CARTESIAN_POINT('',(-0.2,0.3,0.06));
#631=LINE('',#632,#633);
#632=CARTESIAN_POINT('',(-0.2,0.3,0.06));
#633=VECTOR('',#634,1.0);
#634=DIRECTION('',(1.0,2.081668171E-16,-3.469446952E-16));
#635=ORIENTED_EDGE('',*,*,#636,.T.);
#636=EDGE_CURVE('',#629,#292,#637,.F.);
#637=LINE('',#638,#639);
#638=CARTESIAN_POINT('',(-0.2,0.335,0.06));
#639=VECTOR('',#640,1.0);
#640=DIRECTION('',(0.0,-1.0,0.0));
#641=ORIENTED_EDGE('',*,*,#349,.F.);
#642=ORIENTED_EDGE('',*,*,#643,.T.);
#643=EDGE_CURVE('',#342,#627,#644,.T.);
#644=LINE('',#645,#646);
#645=CARTESIAN_POINT('',(-0.1,0.335,0.06));
#646=VECTOR('',#647,1.0);
#647=DIRECTION('',(0.0,-1.0,0.0));
#648=PLANE('',#649);
#649=AXIS2_PLACEMENT_3D('',#650,#651,#652);
#650=CARTESIAN_POINT('',(-0.2,0.335,0.06));
#651=DIRECTION('',(3.469446952E-16,0.0,1.0));
#652=DIRECTION('',(1.0,0.0,-3.469446952E-16));
#653=ADVANCED_FACE('',(#654),#672,.F.);
#654=FACE_BOUND('',#655,.T.);
#655=EDGE_LOOP('',(#656,#664,#665,#666));
#656=ORIENTED_EDGE('',*,*,#657,.T.);
#657=EDGE_CURVE('',#658,#627,#660,.F.);
#658=VERTEX_POINT('',#659);
#659=CARTESIAN_POINT('',(-0.1,0.3,0.0));
#660=LINE('',#661,#662);
#661=CARTESIAN_POINT('',(-0.1,0.3,0.06));
#662=VECTOR('',#663,1.0);
#663=DIRECTION('',(0.0,0.0,-1.0));
#664=ORIENTED_EDGE('',*,*,#643,.F.);
#665=ORIENTED_EDGE('',*,*,#341,.F.);
#666=ORIENTED_EDGE('',*,*,#667,.T.);
#667=EDGE_CURVE('',#334,#658,#668,.F.);
#668=LINE('',#669,#670);
#669=CARTESIAN_POINT('',(-0.1,0.25125,0.0));
#670=VECTOR('',#671,1.0);
#671=DIRECTION('',(0.0,1.0,0.0));
#672=PLANE('',#673);
#673=AXIS2_PLACEMENT_3D('',#674,#675,#676);
#674=CARTESIAN_POINT('',(-0.1,0.335,0.06));
#675=DIRECTION('',(1.0,0.0,0.0));
#676=DIRECTION('',(0.0,0.0,-1.0));
#677=ADVANCED_FACE('',(#678),#705,.F.);
#678=FACE_BOUND('',#679,.T.);
#679=EDGE_LOOP('',(#680,#688,#694,#695,#701,#702,#703,#704));
#680=ORIENTED_EDGE('',*,*,#681,.T.);
#681=EDGE_CURVE('',#629,#682,#684,.F.);
#682=VERTEX_POINT('',#683);
#683=CARTESIAN_POINT('',(-0.2,0.3,0.0));
#684=LINE('',#685,#686);
#685=CARTESIAN_POINT('',(-0.2,0.3,0.0));
#686=VECTOR('',#687,1.0);
#687=DIRECTION('',(0.0,0.0,1.0));
#688=ORIENTED_EDGE('',*,*,#689,.T.);
#689=EDGE_CURVE('',#682,#190,#690,.T.);
#690=LINE('',#691,#692);
#691=CARTESIAN_POINT('',(-0.2,0.335,0.0));
#692=VECTOR('',#693,1.0);
#693=DIRECTION('',(0.0,1.0,0.0));
#694=ORIENTED_EDGE('',*,*,#189,.F.);
#695=ORIENTED_EDGE('',*,*,#696,.T.);
#696=EDGE_CURVE('',#182,#500,#697,.F.);
#697=LINE('',#698,#699);
#698=CARTESIAN_POINT('',(-0.2,0.25125,0.5));
#699=VECTOR('',#700,1.0);
#700=DIRECTION('',(0.0,1.0,0.0));
#701=ORIENTED_EDGE('',*,*,#499,.F.);
#702=ORIENTED_EDGE('',*,*,#483,.F.);
#703=ORIENTED_EDGE('',*,*,#291,.F.);
#704=ORIENTED_EDGE('',*,*,#636,.F.);
#705=PLANE('',#706);
#706=AXIS2_PLACEMENT_3D('',#707,#708,#709);
#707=CARTESIAN_POINT('',(-0.2,0.335,0.0));
#708=DIRECTION('',(-1.0,0.0,0.0));
#709=DIRECTION('',(0.0,0.0,1.0));
#710=ADVANCED_FACE('',(#711),#722,.T.);
#711=FACE_BOUND('',#712,.T.);
#712=EDGE_LOOP('',(#713,#714,#715,#721));
#713=ORIENTED_EDGE('',*,*,#626,.F.);
#714=ORIENTED_EDGE('',*,*,#657,.F.);
#715=ORIENTED_EDGE('',*,*,#716,.T.);
#716=EDGE_CURVE('',#658,#682,#717,.F.);
#717=LINE('',#718,#719);
#718=CARTESIAN_POINT('',(-0.325,0.3,0.0));
#719=VECTOR('',#720,1.0);
#720=DIRECTION('',(1.0,6.628197162E-16,0.0));
#721=ORIENTED_EDGE('',*,*,#681,.F.);
#722=PLANE('',#723);
#723=AXIS2_PLACEMENT_3D('',#724,#725,#726);
#724=CARTESIAN_POINT('',(-0.15,0.3,0.03));
#725=DIRECTION('',(-6.628197162E-16,1.0,5.178279033E-16));
#726=DIRECTION('',(0.0,-5.178279033E-16,1.0));
#727=ADVANCED_FACE('',(#728),#756,.F.);
#728=FACE_BOUND('',#729,.T.);
#729=EDGE_LOOP('',(#730,#731,#732,#738,#739,#740,#741,#742,#743,#744,#745,#746,#747,#753,#754,#755));
#730=ORIENTED_EDGE('',*,*,#81,.F.);
#731=ORIENTED_EDGE('',*,*,#134,.F.);
#732=ORIENTED_EDGE('',*,*,#733,.T.);
#733=EDGE_CURVE('',#127,#246,#734,.T.);
#734=LINE('',#735,#736);
#735=CARTESIAN_POINT('',(-1.0,-1.224646799E-16,0.0));
#736=VECTOR('',#737,1.0);
#737=DIRECTION('',(0.0,1.0,0.0));
#738=ORIENTED_EDGE('',*,*,#245,.F.);
#739=ORIENTED_EDGE('',*,*,#593,.F.);
#740=ORIENTED_EDGE('',*,*,#611,.F.);
#741=ORIENTED_EDGE('',*,*,#571,.F.);
#742=ORIENTED_EDGE('',*,*,#197,.F.);
#743=ORIENTED_EDGE('',*,*,#689,.F.);
#744=ORIENTED_EDGE('',*,*,#716,.F.);
#745=ORIENTED_EDGE('',*,*,#667,.F.);
#746=ORIENTED_EDGE('',*,*,#333,.F.);
#747=ORIENTED_EDGE('',*,*,#748,.T.);
#748=EDGE_CURVE('',#326,#150,#749,.T.);
#749=LINE('',#750,#751);
#750=CARTESIAN_POINT('',(-1.094764425E-46,0.335,0.0));
#751=VECTOR('',#752,1.0);
#752=DIRECTION('',(3.267953508E-46,-1.0,0.0));
#753=ORIENTED_EDGE('',*,*,#149,.F.);
#754=ORIENTED_EDGE('',*,*,#25,.F.);
#755=ORIENTED_EDGE('',*,*,#95,.F.);
#756=PLANE('',#757);
#757=AXIS2_PLACEMENT_3D('',#758,#759,#760);
#758=CARTESIAN_POINT('',(-0.5,0.1675,0.0));
#759=DIRECTION('',(0.0,0.0,1.0));
#760=DIRECTION('',(1.0,0.0,0.0));
#761=ADVANCED_FACE('',(#762),#773,.T.);
#762=FACE_BOUND('',#763,.T.);
#763=EDGE_LOOP('',(#764,#770,#771,#772));
#764=ORIENTED_EDGE('',*,*,#765,.T.);
#765=EDGE_CURVE('',#119,#254,#766,.T.);
#766=LINE('',#767,#768);
#767=CARTESIAN_POINT('',(-1.0,-1.224646799E-16,0.5));
#768=VECTOR('',#769,1.0);
#769=DIRECTION('',(0.0,1.0,0.0));
#770=ORIENTED_EDGE('',*,*,#253,.F.);
#771=ORIENTED_EDGE('',*,*,#733,.F.);
#772=ORIENTED_EDGE('',*,*,#126,.F.);
#773=PLANE('',#774);
#774=AXIS2_PLACEMENT_3D('',#775,#776,#777);
#775=CARTESIAN_POINT('',(-1.0,-1.224646799E-16,0.0));
#776=DIRECTION('',(-1.0,0.0,0.0));
#777=DIRECTION('',(0.0,0.0,1.0));
#778=ADVANCED_FACE('',(#779),#790,.T.);
#779=FACE_BOUND('',#780,.T.);
#780=EDGE_LOOP('',(#781,#787,#788,#789));
#781=ORIENTED_EDGE('',*,*,#782,.T.);
#782=EDGE_CURVE('',#318,#158,#783,.T.);
#783=LINE('',#784,#785);
#784=CARTESIAN_POINT('',(-1.094764425E-46,0.335,0.5));
#785=VECTOR('',#786,1.0);
#786=DIRECTION('',(3.267953508E-46,-1.0,0.0));
#787=ORIENTED_EDGE('',*,*,#157,.F.);
#788=ORIENTED_EDGE('',*,*,#748,.F.);
#789=ORIENTED_EDGE('',*,*,#325,.F.);
#790=PLANE('',#791);
#791=AXIS2_PLACEMENT_3D('',#792,#793,#794);
#792=CARTESIAN_POINT('',(-1.094764425E-46,0.335,0.0));
#793=DIRECTION('',(1.0,3.267953508E-46,0.0));
#794=DIRECTION('',(0.0,0.0,-1.0));
#795=ADVANCED_FACE('',(#796),#814,.T.);
#796=FACE_BOUND('',#797,.T.);
#797=EDGE_LOOP('',(#798,#799,#800,#801,#802,#803,#804,#805,#806,#807,#808,#809,#810,#811,#812,#813));
#798=ORIENTED_EDGE('',*,*,#41,.F.);
#799=ORIENTED_EDGE('',*,*,#165,.F.);
#800=ORIENTED_EDGE('',*,*,#782,.F.);
#801=ORIENTED_EDGE('',*,*,#317,.F.);
#802=ORIENTED_EDGE('',*,*,#452,.F.);
#803=ORIENTED_EDGE('',*,*,#507,.F.);
#804=ORIENTED_EDGE('',*,*,#696,.F.);
#805=ORIENTED_EDGE('',*,*,#179,.F.);
#806=ORIENTED_EDGE('',*,*,#564,.F.);
#807=ORIENTED_EDGE('',*,*,#428,.F.);
#808=ORIENTED_EDGE('',*,*,#404,.F.);
#809=ORIENTED_EDGE('',*,*,#261,.F.);
#810=ORIENTED_EDGE('',*,*,#765,.F.);
#811=ORIENTED_EDGE('',*,*,#118,.F.);
#812=ORIENTED_EDGE('',*,*,#65,.F.);
#813=ORIENTED_EDGE('',*,*,#102,.F.);
#814=PLANE('',#815);
#815=AXIS2_PLACEMENT_3D('',#816,#817,#818);
#816=CARTESIAN_POINT('',(-0.5,0.1675,0.5));
#817=DIRECTION('',(0.0,0.0,1.0));
#818=DIRECTION('',(1.0,0.0,0.0));
#819=AXIS2_PLACEMENT_3D('',#820,#821,#822);
#820=CARTESIAN_POINT('',(0.0,0.0,0.0));
#821=DIRECTION('',(0.0,0.0,1.0));
#822=DIRECTION('',(1.0,0.0,0.0));
#823=(GEOMETRIC_REPRESENTATION_CONTEXT(3)GLOBAL_UNCERTAINTY_ASSIGNED_CONTEXT((#827))GLOBAL_UNIT_ASSIGNED_CONTEXT((#824,#825,#826))REPRESENTATION_CONTEXT('',''));
#824=(LENGTH_UNIT()NAMED_UNIT(*)SI_UNIT(.MILLI.,.METRE.));
#825=(NAMED_UNIT(*)PLANE_ANGLE_UNIT()SI_UNIT($,.RADIAN.));
#826=(NAMED_UNIT(*)SI_UNIT($,.STERADIAN.)SOLID_ANGLE_UNIT());
#827=UNCERTAINTY_MEASURE_WITH_UNIT(LENGTH_MEASURE(1.0E-07),#824,'','maximum tolerance');
#828=ADVANCED_BREP_SHAPE_REPRESENTATION('',(#9,#819),#823);
#829=SHAPE_DEFINITION_REPRESENTATION(#8,#828);
#830=PRODUCT_RELATED_PRODUCT_CATEGORY('part',$,(#4));
#831=PROPERTY_DEFINITION('material name',$,#7);
#832=DESCRIPTIVE_REPRESENTATION_ITEM('','-');
#833=REPRESENTATION('material name',(#832),#823);
#834=PROPERTY_DEFINITION_REPRESENTATION(#831,#833);
#835=PROPERTY_DEFINITION('density',$,#7);
#836=VALUE_REPRESENTATION_ITEM('',NUMERIC_MEASURE(7.9));
#837=REPRESENTATION('density',(#836),#823);
#838=PROPERTY_DEFINITION_REPRESENTATION(#835,#837);
#839=GENERAL_PROPERTY('','density',$);
#840=GENERAL_PROPERTY('','material name',$);
#841=STYLED_ITEM('',(#842),#9);
#842=PRESENTATION_STYLE_ASSIGNMENT((#843));
#843=SURFACE_STYLE_USAGE(.BOTH.,#844);
#844=SURFACE_SIDE_STYLE('',(#845));
#845=SURFACE_STYLE_FILL_AREA(#846);
#846=FILL_AREA_STYLE('',(#848));
#847=COLOUR_RGB('',0.752941191,0.752941191,0.752941191);
#848=FILL_AREA_STYLE_COLOUR('',#847);
#849=MECHANICAL_DESIGN_GEOMETRIC_PRESENTATION_REPRESENTATION('',(#841),#823);
ENDSEC;
END-ISO-10303-21;
